<svg width="193" height="55" viewBox="0 0 193 55" fill="none" xmlns="http://www.w3.org/2000/svg">
<path d="M33.9978 23.63L29.7711 35.5044L31.705 36.5146C35.6257 32.4708 43.3948 23.3741 43.1061 19.3376C42.7452 14.2919 37.342 17.1128 36.204 18.3354C35.2936 19.3134 34.3539 22.2727 33.9978 23.63Z" fill="#66CC00"/>
<path d="M25.7089 23.4296L28.1793 35.6611L30.4376 35.8189C31.8123 30.6983 33.9663 19.5837 31.5856 16.09C28.6097 11.7228 25.2679 16.322 24.8946 17.8519C24.5959 19.0759 25.313 22.0804 25.7089 23.4296Z" fill="#FFFF00"/>
<path d="M18.3248 26.8387L27.6563 36.3434L29.7004 35.5071C27.8752 30.4906 23.1967 19.9593 19.0839 17.9659C13.943 15.4741 13.7616 20.8873 14.3392 22.37C14.8014 23.5562 17.1888 25.8434 18.3248 26.8387Z" fill="#FF9933"/>
<path d="M13.4118 31.3572L26.143 37.3103L27.6921 35.8955C23.8606 31.7896 15.028 23.4334 10.3496 22.8552C4.5017 22.1324 6.63242 27.2318 7.80045 28.4335C8.73488 29.3949 11.9307 30.7832 13.4118 31.3572Z" fill="#FF3333"/>
<path d="M16.7895 50.4439L27 42.0223L25.8962 40.3848C20.285 42.2562 8.5659 46.8881 6.57899 50.4439C4.09536 54.8887 10.3044 54.6547 11.9602 54.0699C13.2848 53.602 15.7317 51.4576 16.7895 50.4439Z" fill="#663300"/>
<path d="M11.9392 44.1601L25.8033 40.5017L25.6977 38.5653C19.586 38.0528 6.42607 37.6446 2.67997 40.1109C-2.00266 43.1939 3.75585 45.4421 5.57713 45.5635C7.03416 45.6606 10.4256 44.6684 11.9392 44.1601Z" fill="#3399CC"/>
<path d="M11.0622 37.4457L25.4547 39.0132L26.2934 37.2124C20.9748 34.586 9.18695 29.5637 4.58462 30.4861C-1.16829 31.6391 2.99065 35.7215 4.59072 36.4756C5.87077 37.0789 9.43842 37.3737 11.0622 37.4457Z" fill="#CD37CD"/>
<path d="M24.0781 47.4805L26.2227 47.293C26.3242 48.1523 26.5586 48.8594 26.9258 49.4141C27.3008 49.9609 27.8789 50.4062 28.6602 50.75C29.4414 51.0859 30.3203 51.2539 31.2969 51.2539C32.1641 51.2539 32.9297 51.125 33.5938 50.8672C34.2578 50.6094 34.75 50.2578 35.0703 49.8125C35.3984 49.3594 35.5625 48.8672 35.5625 48.3359C35.5625 47.7969 35.4062 47.3281 35.0938 46.9297C34.7812 46.5234 34.2656 46.1836 33.5469 45.9102C33.0859 45.7305 32.0664 45.4531 30.4883 45.0781C28.9102 44.6953 27.8047 44.3359 27.1719 44C26.3516 43.5703 25.7383 43.0391 25.332 42.4062C24.9336 41.7656 24.7344 41.0508 24.7344 40.2617C24.7344 39.3945 24.9805 38.5859 25.4727 37.8359C25.9648 37.0781 26.6836 36.5039 27.6289 36.1133C28.5742 35.7227 29.625 35.5273 30.7812 35.5273C32.0547 35.5273 33.1758 35.7344 34.1445 36.1484C35.1211 36.5547 35.8711 37.1562 36.3945 37.9531C36.918 38.75 37.1992 39.6523 37.2383 40.6602L35.0586 40.8242C34.9414 39.7383 34.543 38.918 33.8633 38.3633C33.1914 37.8086 32.1953 37.5312 30.875 37.5312C29.5 37.5312 28.4961 37.7852 27.8633 38.293C27.2383 38.793 26.9258 39.3984 26.9258 40.1094C26.9258 40.7266 27.1484 41.2344 27.5938 41.6328C28.0312 42.0312 29.1719 42.4414 31.0156 42.8633C32.8672 43.2773 34.1367 43.6406 34.8242 43.9531C35.8242 44.4141 36.5625 45 37.0391 45.7109C37.5156 46.4141 37.7539 47.2266 37.7539 48.1484C37.7539 49.0625 37.4922 49.9258 36.9688 50.7383C36.4453 51.543 35.6914 52.1719 34.707 52.625C33.7305 53.0703 32.6289 53.293 31.4023 53.293C29.8477 53.293 28.543 53.0664 27.4883 52.6133C26.4414 52.1602 25.6172 51.4805 25.0156 50.5742C24.4219 49.6602 24.1094 48.6289 24.0781 47.4805ZM40.6016 53V35.8203H42.7109V45.6172L47.7031 40.5547H50.4336L45.6758 45.1719L50.9141 53H48.3125L44.1992 46.6367L42.7109 48.0664V53H40.6016ZM51.8047 46.7773C51.8047 44.4727 52.4453 42.7656 53.7266 41.6562C54.7969 40.7344 56.1016 40.2734 57.6406 40.2734C59.3516 40.2734 60.75 40.8359 61.8359 41.9609C62.9219 43.0781 63.4648 44.625 63.4648 46.6016C63.4648 48.2031 63.2227 49.4648 62.7383 50.3867C62.2617 51.3008 61.5625 52.0117 60.6406 52.5195C59.7266 53.0273 58.7266 53.2812 57.6406 53.2812C55.8984 53.2812 54.4883 52.7227 53.4102 51.6055C52.3398 50.4883 51.8047 48.8789 51.8047 46.7773ZM53.9727 46.7773C53.9727 48.3711 54.3203 49.5664 55.0156 50.3633C55.7109 51.1523 56.5859 51.5469 57.6406 51.5469C58.6875 51.5469 59.5586 51.1484 60.2539 50.3516C60.9492 49.5547 61.2969 48.3398 61.2969 46.707C61.2969 45.168 60.9453 44.0039 60.2422 43.2148C59.5469 42.418 58.6797 42.0195 57.6406 42.0195C56.5859 42.0195 55.7109 42.4141 55.0156 43.2031C54.3203 43.9922 53.9727 45.1836 53.9727 46.7773ZM56.4688 39.0078L58.0273 35.7266H60.793L58.2148 39.0078H56.4688ZM65.9023 53V35.8203H68.0117V53H65.9023ZM79.4141 51.4648C78.6328 52.1289 77.8789 52.5977 77.1523 52.8711C76.4336 53.1445 75.6602 53.2812 74.832 53.2812C73.4648 53.2812 72.4141 52.9492 71.6797 52.2852C70.9453 51.6133 70.5781 50.7578 70.5781 49.7188C70.5781 49.1094 70.7148 48.5547 70.9883 48.0547C71.2695 47.5469 71.6328 47.1406 72.0781 46.8359C72.5312 46.5312 73.0391 46.3008 73.6016 46.1445C74.0156 46.0352 74.6406 45.9297 75.4766 45.8281C77.1797 45.625 78.4336 45.3828 79.2383 45.1016C79.2461 44.8125 79.25 44.6289 79.25 44.5508C79.25 43.6914 79.0508 43.0859 78.6523 42.7344C78.1133 42.2578 77.3125 42.0195 76.25 42.0195C75.2578 42.0195 74.5234 42.1953 74.0469 42.5469C73.5781 42.8906 73.2305 43.5039 73.0039 44.3867L70.9414 44.1055C71.1289 43.2227 71.4375 42.5117 71.8672 41.9727C72.2969 41.4258 72.918 41.0078 73.7305 40.7188C74.543 40.4219 75.4844 40.2734 76.5547 40.2734C77.6172 40.2734 78.4805 40.3984 79.1445 40.6484C79.8086 40.8984 80.2969 41.2148 80.6094 41.5977C80.9219 41.9727 81.1406 42.4492 81.2656 43.0273C81.3359 43.3867 81.3711 44.0352 81.3711 44.9727V47.7852C81.3711 49.7461 81.4141 50.9883 81.5 51.5117C81.5938 52.0273 81.7734 52.5234 82.0391 53H79.8359C79.6172 52.5625 79.4766 52.0508 79.4141 51.4648ZM79.2383 46.7539C78.4727 47.0664 77.3242 47.332 75.793 47.5508C74.9258 47.6758 74.3125 47.8164 73.9531 47.9727C73.5938 48.1289 73.3164 48.3594 73.1211 48.6641C72.9258 48.9609 72.8281 49.293 72.8281 49.6602C72.8281 50.2227 73.0391 50.6914 73.4609 51.0664C73.8906 51.4414 74.5156 51.6289 75.3359 51.6289C76.1484 51.6289 76.8711 51.4531 77.5039 51.1016C78.1367 50.7422 78.6016 50.2539 78.8984 49.6367C79.125 49.1602 79.2383 48.457 79.2383 47.5273V46.7539ZM88.1094 53L83.375 40.5547H85.6016L88.2734 48.0078C88.5625 48.8125 88.8281 49.6484 89.0703 50.5156C89.2578 49.8594 89.5195 49.0703 89.8555 48.1484L92.6211 40.5547H94.7891L90.0781 53H88.1094ZM105.172 48.9922L107.352 49.2617C107.008 50.5352 106.371 51.5234 105.441 52.2266C104.512 52.9297 103.324 53.2812 101.879 53.2812C100.059 53.2812 98.6133 52.7227 97.543 51.6055C96.4805 50.4805 95.9492 48.9062 95.9492 46.8828C95.9492 44.7891 96.4883 43.1641 97.5664 42.0078C98.6445 40.8516 100.043 40.2734 101.762 40.2734C103.426 40.2734 104.785 40.8398 105.84 41.9727C106.895 43.1055 107.422 44.6992 107.422 46.7539C107.422 46.8789 107.418 47.0664 107.41 47.3164H98.1289C98.207 48.6836 98.5938 49.7305 99.2891 50.457C99.9844 51.1836 100.852 51.5469 101.891 51.5469C102.664 51.5469 103.324 51.3438 103.871 50.9375C104.418 50.5312 104.852 49.8828 105.172 48.9922ZM98.2461 45.582H105.195C105.102 44.5352 104.836 43.75 104.398 43.2266C103.727 42.4141 102.855 42.0078 101.785 42.0078C100.816 42.0078 100 42.332 99.3359 42.9805C98.6797 43.6289 98.3164 44.4961 98.2461 45.582ZM110.516 53V42.1953H108.652V40.5547H110.516V39.2305C110.516 38.3945 110.59 37.7734 110.738 37.3672C110.941 36.8203 111.297 36.3789 111.805 36.043C112.32 35.6992 113.039 35.5273 113.961 35.5273C114.555 35.5273 115.211 35.5977 115.93 35.7383L115.613 37.5781C115.176 37.5 114.762 37.4609 114.371 37.4609C113.73 37.4609 113.277 37.5977 113.012 37.8711C112.746 38.1445 112.613 38.6562 112.613 39.4062V40.5547H115.039V42.1953H112.613V53H110.516ZM124.848 53V51.1719C123.879 52.5781 122.562 53.2812 120.898 53.2812C120.164 53.2812 119.477 53.1406 118.836 52.8594C118.203 52.5781 117.73 52.2266 117.418 51.8047C117.113 51.375 116.898 50.8516 116.773 50.2344C116.688 49.8203 116.645 49.1641 116.645 48.2656V40.5547H118.754V47.457C118.754 48.5586 118.797 49.3008 118.883 49.6836C119.016 50.2383 119.297 50.6758 119.727 50.9961C120.156 51.3086 120.688 51.4648 121.32 51.4648C121.953 51.4648 122.547 51.3047 123.102 50.9844C123.656 50.6562 124.047 50.2148 124.273 49.6602C124.508 49.0977 124.625 48.2852 124.625 47.2227V40.5547H126.734V53H124.848ZM130.027 53V40.5547H131.926V42.4414C132.41 41.5586 132.855 40.9766 133.262 40.6953C133.676 40.4141 134.129 40.2734 134.621 40.2734C135.332 40.2734 136.055 40.5 136.789 40.9531L136.062 42.9102C135.547 42.6055 135.031 42.4531 134.516 42.4531C134.055 42.4531 133.641 42.5938 133.273 42.875C132.906 43.1484 132.645 43.5312 132.488 44.0234C132.254 44.7734 132.137 45.5938 132.137 46.4844V53H130.027ZM138.055 38.2461V35.8203H140.164V38.2461H138.055ZM138.055 53V40.5547H140.164V53H138.055ZM143.387 53V40.5547H145.285V42.3242C146.199 40.957 147.52 40.2734 149.246 40.2734C149.996 40.2734 150.684 40.4102 151.309 40.6836C151.941 40.9492 152.414 41.3008 152.727 41.7383C153.039 42.1758 153.258 42.6953 153.383 43.2969C153.461 43.6875 153.5 44.3711 153.5 45.3477V53H151.391V45.4297C151.391 44.5703 151.309 43.9297 151.145 43.5078C150.98 43.0781 150.688 42.7383 150.266 42.4883C149.852 42.2305 149.363 42.1016 148.801 42.1016C147.902 42.1016 147.125 42.3867 146.469 42.957C145.82 43.5273 145.496 44.6094 145.496 46.2031V53H143.387ZM156.746 53V40.5547H158.645V42.3242C159.559 40.957 160.879 40.2734 162.605 40.2734C163.355 40.2734 164.043 40.4102 164.668 40.6836C165.301 40.9492 165.773 41.3008 166.086 41.7383C166.398 42.1758 166.617 42.6953 166.742 43.2969C166.82 43.6875 166.859 44.3711 166.859 45.3477V53H164.75V45.4297C164.75 44.5703 164.668 43.9297 164.504 43.5078C164.34 43.0781 164.047 42.7383 163.625 42.4883C163.211 42.2305 162.723 42.1016 162.16 42.1016C161.262 42.1016 160.484 42.3867 159.828 42.957C159.18 43.5273 158.855 44.6094 158.855 46.2031V53H156.746ZM170.703 53V50.5977H173.105V53H170.703ZM176.797 38.2461V35.8203H178.906V38.2461H176.797ZM176.797 53V40.5547H178.906V53H176.797ZM181.285 49.2852L183.371 48.957C183.488 49.793 183.812 50.4336 184.344 50.8789C184.883 51.3242 185.633 51.5469 186.594 51.5469C187.562 51.5469 188.281 51.3516 188.75 50.9609C189.219 50.5625 189.453 50.0977 189.453 49.5664C189.453 49.0898 189.246 48.7148 188.832 48.4414C188.543 48.2539 187.824 48.0156 186.676 47.7266C185.129 47.3359 184.055 47 183.453 46.7188C182.859 46.4297 182.406 46.0352 182.094 45.5352C181.789 45.0273 181.637 44.4688 181.637 43.8594C181.637 43.3047 181.762 42.793 182.012 42.3242C182.27 41.8477 182.617 41.4531 183.055 41.1406C183.383 40.8984 183.828 40.6953 184.391 40.5312C184.961 40.3594 185.57 40.2734 186.219 40.2734C187.195 40.2734 188.051 40.4141 188.785 40.6953C189.527 40.9766 190.074 41.3594 190.426 41.8438C190.777 42.3203 191.02 42.9609 191.152 43.7656L189.09 44.0469C188.996 43.4062 188.723 42.9062 188.27 42.5469C187.824 42.1875 187.191 42.0078 186.371 42.0078C185.402 42.0078 184.711 42.168 184.297 42.4883C183.883 42.8086 183.676 43.1836 183.676 43.6133C183.676 43.8867 183.762 44.1328 183.934 44.3516C184.105 44.5781 184.375 44.7656 184.742 44.9141C184.953 44.9922 185.574 45.1719 186.605 45.4531C188.098 45.8516 189.137 46.1797 189.723 46.4375C190.316 46.6875 190.781 47.0547 191.117 47.5391C191.453 48.0234 191.621 48.625 191.621 49.3438C191.621 50.0469 191.414 50.7109 191 51.3359C190.594 51.9531 190.004 52.4336 189.23 52.7773C188.457 53.1133 187.582 53.2812 186.605 53.2812C184.988 53.2812 183.754 52.9453 182.902 52.2734C182.059 51.6016 181.52 50.6055 181.285 49.2852Z" fill="black"/>
</svg>
