<svg width="193" height="641" viewBox="0 0 193 641" fill="none" xmlns="http://www.w3.org/2000/svg">
<path d="M33.9978 23.2453L29.7711 35.1196L31.705 36.1299C35.6257 32.0861 43.3948 22.9894 43.1061 18.9528C42.7452 13.9071 37.342 16.728 36.204 17.9506C35.2936 18.9287 34.3539 21.8879 33.9978 23.2453Z" fill="#66CC00"/>
<path d="M40.7335 27.2288L31.2253 35.7991L32.4415 37.5671C37.8704 35.7725 49.1554 31.2595 50.864 27.5645C52.9997 22.9458 46.8566 22.989 45.257 23.5531C43.9774 24.0043 41.7082 26.1916 40.7335 27.2288Z" fill="#3399CC"/>
<path d="M45.1024 33.877L32.3032 36.132L32.3368 38.2538C37.9099 39.5739 49.9329 41.6594 53.4393 39.4408C57.8223 36.6676 52.6286 33.5014 50.9668 33.1421C49.6374 32.8547 46.5033 33.5123 45.1024 33.877Z" fill="#CD37CD"/>
<path d="M44.8683 40.6546L32.2766 37.4939L31.3803 39.4317C35.8577 42.8955 45.8497 49.6767 49.9985 49.0909C55.1844 48.3587 51.8575 43.3751 50.5074 42.3734C49.4273 41.572 46.298 40.8936 44.8683 40.6546Z" fill="#FF3333"/>
<path d="M40.2106 49.2202L32.0905 39.51L30.2086 40.5668C31.6852 45.9108 35.5525 57.0697 39.209 58.9539C43.7795 61.3092 44.1353 55.3907 43.6642 53.8139C43.2874 52.5524 41.2048 50.2258 40.2106 49.2202Z" fill="#FF9933"/>
<path d="M32.4285 53.4558L30.6785 40.9114L28.4704 40.8741C26.8384 46.2603 24.1107 57.9052 26.2549 61.3947C28.9351 65.7564 32.4692 60.8008 32.9201 59.1936C33.2808 57.9078 32.7426 54.8327 32.4285 53.4558Z" fill="#FFFF00"/>
<path d="M23.7906 53.0868L28.9364 41.5552L27.0873 40.4066C22.8608 44.1525 14.4005 52.6557 14.3718 56.7018C14.3359 61.7593 19.9449 59.3411 21.1755 58.2052C22.16 57.2964 23.3291 54.4143 23.7906 53.0868Z" fill="#66CC00"/>
<path d="M25.7089 23.0449L28.1793 35.2764L30.4376 35.4341C31.8123 30.3135 33.9663 19.1989 31.5856 15.7052C28.6097 11.3381 25.2679 15.9372 24.8946 17.4672C24.5959 18.6911 25.313 21.6956 25.7089 23.0449Z" fill="#FFFF00"/>
<path d="M18.3248 26.4539L27.6563 35.9587L29.7004 35.1223C27.8752 30.1059 23.1967 19.5745 19.0839 17.5811C13.943 15.0893 13.7616 20.5025 14.3392 21.9852C14.8014 23.1714 17.1888 25.4586 18.3248 26.4539Z" fill="#FF9933"/>
<path d="M13.4118 30.9725L26.143 36.9255L27.6921 35.5107C23.8606 31.4049 15.028 23.0486 10.3496 22.4704C4.5017 21.7477 6.63242 26.847 7.80045 28.0487C8.73488 29.0101 11.9307 30.3985 13.4118 30.9725Z" fill="#FF3333"/>
<path d="M16.7895 50.0592L27 41.6375L25.8962 40C20.285 41.8715 8.5659 46.5034 6.57899 50.0592C4.09536 54.5039 10.3044 54.27 11.9602 53.6851C13.2848 53.2173 15.7317 51.0729 16.7895 50.0592Z" fill="#663300"/>
<path d="M11.9392 43.7754L25.8033 40.117L25.6977 38.1805C19.586 37.6681 6.42607 37.2598 2.67997 39.7262C-2.00266 42.8091 3.75585 45.0574 5.57713 45.1787C7.03416 45.2758 10.4256 44.2836 11.9392 43.7754Z" fill="#3399CC"/>
<path d="M11.0622 37.061L25.4547 38.6285L26.2934 36.8276C20.9748 34.2012 9.18695 29.179 4.58462 30.1013C-1.16829 31.2543 2.99065 35.3367 4.59072 36.0909C5.87077 36.6942 9.43842 36.989 11.0622 37.061Z" fill="#CD37CD"/>
<ellipse cx="29" cy="37.5" rx="4" ry="4.5" fill="#E0777D"/>
<path d="M33.9978 96.5431L29.7711 108.417L31.705 109.428C35.6257 105.384 43.3948 96.2872 43.1061 92.2507C42.7452 87.205 37.342 90.0259 36.204 91.2485C35.2936 92.2265 34.3539 95.1858 33.9978 96.5431Z" fill="#66CC00"/>
<path d="M45.1024 107.175L32.3032 109.43L32.3368 111.552C37.9099 112.872 49.9329 114.957 53.4393 112.739C57.8223 109.965 52.6286 106.799 50.9668 106.44C49.6374 106.153 46.5033 106.81 45.1024 107.175Z" fill="#CD37CD"/>
<path d="M44.8683 113.952L32.2766 110.792L31.3803 112.73C35.8577 116.193 45.8497 122.975 49.9985 122.389C55.1844 121.657 51.8575 116.673 50.5074 115.671C49.4273 114.87 46.298 114.191 44.8683 113.952Z" fill="#FF3333"/>
<path d="M40.2106 122.518L32.0905 112.808L30.2086 113.865C31.6852 119.209 35.5525 130.368 39.209 132.252C43.7795 134.607 44.1353 128.689 43.6642 127.112C43.2874 125.85 41.2048 123.524 40.2106 122.518Z" fill="#FF9933"/>
<path d="M32.4285 126.754L30.6785 114.209L28.4704 114.172C26.8384 119.558 24.1107 131.203 26.2549 134.693C28.9351 139.054 32.4692 134.099 32.9201 132.491C33.2808 131.206 32.7426 128.131 32.4285 126.754Z" fill="#FFFF00"/>
<path d="M23.7906 126.385L28.9364 114.853L27.0873 113.704C22.8608 117.45 14.4005 125.954 14.3718 130C14.3359 135.057 19.9449 132.639 21.1755 131.503C22.16 130.594 23.3291 127.712 23.7906 126.385Z" fill="#66CC00"/>
<path d="M25.7089 96.3427L28.1793 108.574L30.4376 108.732C31.8123 103.611 33.9663 92.4968 31.5856 89.0031C28.6097 84.6359 25.2679 89.2351 24.8946 90.765C24.5959 91.989 25.313 94.9935 25.7089 96.3427Z" fill="#FFFF00"/>
<path d="M18.3248 99.7518L27.6563 109.257L29.7004 108.42C27.8752 103.404 23.1967 92.8724 19.0839 90.879C13.943 88.3872 13.7616 93.8004 14.3392 95.2831C14.8014 96.4693 17.1888 98.7565 18.3248 99.7518Z" fill="#FF9933"/>
<path d="M13.4118 104.27L26.143 110.223L27.6921 108.809C23.8606 104.703 15.028 96.3465 10.3496 95.7683C4.5017 95.0455 6.63242 100.145 7.80045 101.347C8.73488 102.308 11.9307 103.696 13.4118 104.27Z" fill="#FF3333"/>
<path d="M16.7895 123.357L27 114.935L25.8962 113.298C20.285 115.169 8.5659 119.801 6.57899 123.357C4.09536 127.802 10.3044 127.568 11.9602 126.983C13.2848 126.515 15.7317 124.371 16.7895 123.357Z" fill="#663300"/>
<path d="M11.9392 117.073L25.8033 113.415L25.6977 111.478C19.586 110.966 6.42607 110.558 2.67997 113.024C-2.00266 116.107 3.75585 118.355 5.57713 118.477C7.03416 118.574 10.4256 117.581 11.9392 117.073Z" fill="#3399CC"/>
<path d="M11.0622 110.359L25.4547 111.926L26.2934 110.125C20.9748 107.499 9.18695 102.477 4.58462 103.399C-1.16829 104.552 2.99065 108.635 4.59072 109.389C5.87077 109.992 9.43842 110.287 11.0622 110.359Z" fill="#CD37CD"/>
<ellipse cx="29" cy="110.798" rx="4" ry="4.5" fill="#E0777D"/>
<path d="M33.9978 169.841L29.7711 181.716L31.705 182.726C35.6257 178.682 43.3948 169.586 43.1061 165.549C42.7452 160.503 37.342 163.324 36.204 164.547C35.2936 165.525 34.3539 168.484 33.9978 169.841Z" fill="#66CC00"/>
<path d="M44.8683 187.251L32.2766 184.09L31.3803 186.028C35.8577 189.492 45.8497 196.273 49.9985 195.687C55.1844 194.955 51.8575 189.971 50.5074 188.97C49.4273 188.168 46.298 187.49 44.8683 187.251Z" fill="#FF3333"/>
<path d="M40.2106 195.816L32.0905 186.106L30.2086 187.163C31.6852 192.507 35.5525 203.666 39.209 205.55C43.7795 207.905 44.1353 201.987 43.6642 200.41C43.2874 199.149 41.2048 196.822 40.2106 195.816Z" fill="#FF9933"/>
<path d="M32.4285 200.052L30.6785 187.508L28.4704 187.47C26.8384 192.857 24.1107 204.501 26.2549 207.991C28.9351 212.353 32.4692 207.397 32.9201 205.79C33.2808 204.504 32.7426 201.429 32.4285 200.052Z" fill="#FFFF00"/>
<path d="M23.7906 199.683L28.9364 188.151L27.0873 187.003C22.8608 190.749 14.4005 199.252 14.3718 203.298C14.3359 208.356 19.9449 205.937 21.1755 204.801C22.16 203.893 23.3291 201.01 23.7906 199.683Z" fill="#66CC00"/>
<path d="M25.7089 169.641L28.1793 181.873L30.4376 182.03C31.8123 176.91 33.9663 165.795 31.5856 162.301C28.6097 157.934 25.2679 162.533 24.8946 164.063C24.5959 165.287 25.313 168.292 25.7089 169.641Z" fill="#FFFF00"/>
<path d="M18.3248 173.05L27.6563 182.555L29.7004 181.719C27.8752 176.702 23.1967 166.171 19.0839 164.177C13.943 161.686 13.7616 167.099 14.3392 168.581C14.8014 169.768 17.1888 172.055 18.3248 173.05Z" fill="#FF9933"/>
<path d="M13.4118 177.569L26.143 183.522L27.6921 182.107C23.8606 178.001 15.028 169.645 10.3496 169.067C4.5017 168.344 6.63242 173.443 7.80045 174.645C8.73488 175.606 11.9307 176.995 13.4118 177.569Z" fill="#FF3333"/>
<path d="M16.7895 196.655L27 188.234L25.8962 186.596C20.285 188.468 8.5659 193.1 6.57899 196.655C4.09536 201.1 10.3044 200.866 11.9602 200.281C13.2848 199.813 15.7317 197.669 16.7895 196.655Z" fill="#663300"/>
<path d="M11.9392 190.372L25.8033 186.713L25.6977 184.777C19.586 184.264 6.42607 183.856 2.67997 186.322C-2.00266 189.405 3.75585 191.654 5.57713 191.775C7.03416 191.872 10.4256 190.88 11.9392 190.372Z" fill="#3399CC"/>
<path d="M11.0622 183.657L25.4547 185.225L26.2934 183.424C20.9748 180.797 9.18695 175.775 4.58462 176.698C-1.16829 177.851 2.99065 181.933 4.59072 182.687C5.87077 183.29 9.43842 183.585 11.0622 183.657Z" fill="#CD37CD"/>
<ellipse cx="29" cy="184.096" rx="4" ry="4.5" fill="#E0777D"/>
<path d="M33.9978 243.14L29.7711 255.014L31.705 256.024C35.6257 251.981 43.3948 242.884 43.1061 238.847C42.7452 233.802 37.342 236.623 36.204 237.845C35.2936 238.823 34.3539 241.782 33.9978 243.14Z" fill="#66CC00"/>
<path d="M40.2106 269.115L32.0905 259.405L30.2086 260.461C31.6852 265.805 35.5525 276.964 39.209 278.848C43.7795 281.204 44.1353 275.285 43.6642 273.708C43.2874 272.447 41.2048 270.12 40.2106 269.115Z" fill="#FF9933"/>
<path d="M32.4285 273.35L30.6785 260.806L28.4704 260.769C26.8384 266.155 24.1107 277.8 26.2549 281.289C28.9351 285.651 32.4692 280.695 32.9201 279.088C33.2808 277.802 32.7426 274.727 32.4285 273.35Z" fill="#FFFF00"/>
<path d="M23.7906 272.981L28.9364 261.45L27.0873 260.301C22.8608 264.047 14.4005 272.55 14.3718 276.596C14.3359 281.654 19.9449 279.236 21.1755 278.1C22.16 277.191 23.3291 274.309 23.7906 272.981Z" fill="#66CC00"/>
<path d="M25.7089 242.939L28.1793 255.171L30.4376 255.329C31.8123 250.208 33.9663 239.093 31.5856 235.6C28.6097 231.233 25.2679 235.832 24.8946 237.362C24.5959 238.586 25.313 241.59 25.7089 242.939Z" fill="#FFFF00"/>
<path d="M18.3248 246.348L27.6563 255.853L29.7004 255.017C27.8752 250 23.1967 239.469 19.0839 237.476C13.943 234.984 13.7616 240.397 14.3392 241.88C14.8014 243.066 17.1888 245.353 18.3248 246.348Z" fill="#FF9933"/>
<path d="M13.4118 250.867L26.143 256.82L27.6921 255.405C23.8606 251.299 15.028 242.943 10.3496 242.365C4.5017 241.642 6.63242 246.742 7.80045 247.943C8.73488 248.905 11.9307 250.293 13.4118 250.867Z" fill="#FF3333"/>
<path d="M16.7895 269.954L27 261.532L25.8962 259.895C20.285 261.766 8.5659 266.398 6.57899 269.954C4.09536 274.398 10.3044 274.165 11.9602 273.58C13.2848 273.112 15.7317 270.967 16.7895 269.954Z" fill="#663300"/>
<path d="M11.9392 263.67L25.8033 260.011L25.6977 258.075C19.586 257.563 6.42607 257.154 2.67997 259.621C-2.00266 262.704 3.75585 264.952 5.57713 265.073C7.03416 265.17 10.4256 264.178 11.9392 263.67Z" fill="#3399CC"/>
<path d="M11.0622 256.955L25.4547 258.523L26.2934 256.722C20.9748 254.096 9.18695 249.074 4.58462 249.996C-1.16829 251.149 2.99065 255.231 4.59072 255.985C5.87077 256.589 9.43842 256.884 11.0622 256.955Z" fill="#CD37CD"/>
<ellipse cx="29" cy="257.395" rx="4" ry="4.5" fill="#E0777D"/>
<path d="M33.9978 316.438L29.7711 328.312L31.705 329.322C35.6257 325.278 43.3948 316.182 43.1061 312.145C42.7452 307.1 37.342 309.92 36.204 311.143C35.2936 312.121 34.3539 315.08 33.9978 316.438Z" fill="#66CC00"/>
<path d="M32.4285 346.648L30.6785 334.104L28.4704 334.066C26.8384 339.453 24.1107 351.098 26.2549 354.587C28.9351 358.949 32.4692 353.993 32.9201 352.386C33.2808 351.1 32.7426 348.025 32.4285 346.648Z" fill="#FFFF00"/>
<path d="M23.7906 346.279L28.9364 334.748L27.0873 333.599C22.8608 337.345 14.4005 345.848 14.3718 349.894C14.3359 354.952 19.9449 352.534 21.1755 351.398C22.16 350.489 23.3291 347.607 23.7906 346.279Z" fill="#66CC00"/>
<path d="M25.7089 316.237L28.1793 328.469L30.4376 328.626C31.8123 323.506 33.9663 312.391 31.5856 308.898C28.6097 304.53 25.2679 309.13 24.8946 310.66C24.5959 311.883 25.313 314.888 25.7089 316.237Z" fill="#FFFF00"/>
<path d="M18.3248 319.646L27.6563 329.151L29.7004 328.315C27.8752 323.298 23.1967 312.767 19.0839 310.773C13.943 308.282 13.7616 313.695 14.3392 315.178C14.8014 316.364 17.1888 318.651 18.3248 319.646Z" fill="#FF9933"/>
<path d="M13.4118 324.165L26.143 330.118L27.6921 328.703C23.8606 324.597 15.028 316.241 10.3496 315.663C4.5017 314.94 6.63242 320.039 7.80045 321.241C8.73488 322.202 11.9307 323.591 13.4118 324.165Z" fill="#FF3333"/>
<path d="M16.7895 343.252L27 334.83L25.8962 333.192C20.285 335.064 8.5659 339.696 6.57899 343.252C4.09536 347.696 10.3044 347.462 11.9602 346.878C13.2848 346.41 15.7317 344.265 16.7895 343.252Z" fill="#663300"/>
<path d="M11.9392 336.968L25.8033 333.309L25.6977 331.373C19.586 330.86 6.42607 330.452 2.67997 332.919C-2.00266 336.002 3.75585 338.25 5.57713 338.371C7.03416 338.468 10.4256 337.476 11.9392 336.968Z" fill="#3399CC"/>
<path d="M11.0622 330.253L25.4547 331.821L26.2934 330.02C20.9748 327.394 9.18695 322.371 4.58462 323.294C-1.16829 324.447 2.99065 328.529 4.59072 329.283C5.87077 329.887 9.43842 330.181 11.0622 330.253Z" fill="#CD37CD"/>
<ellipse cx="29" cy="330.692" rx="4" ry="4.5" fill="#E0777D"/>
<path d="M33.9978 389.735L29.7711 401.61L31.705 402.62C35.6257 398.576 43.3948 389.48 43.1061 385.443C42.7452 380.397 37.342 383.218 36.204 384.441C35.2936 385.419 34.3539 388.378 33.9978 389.735Z" fill="#66CC00"/>
<path d="M23.7906 419.577L28.9364 408.045L27.0873 406.897C22.8608 410.643 14.4005 419.146 14.3718 423.192C14.3359 428.25 19.9449 425.831 21.1755 424.695C22.16 423.787 23.3291 420.905 23.7906 419.577Z" fill="#66CC00"/>
<path d="M25.7089 389.535L28.1793 401.767L30.4376 401.924C31.8123 396.804 33.9663 385.689 31.5856 382.195C28.6097 377.828 25.2679 382.427 24.8946 383.957C24.5959 385.181 25.313 388.186 25.7089 389.535Z" fill="#FFFF00"/>
<path d="M18.3248 392.944L27.6563 402.449L29.7004 401.613C27.8752 396.596 23.1967 386.065 19.0839 384.071C13.943 381.58 13.7616 386.993 14.3392 388.475C14.8014 389.662 17.1888 391.949 18.3248 392.944Z" fill="#FF9933"/>
<path d="M13.4118 397.463L26.143 403.416L27.6921 402.001C23.8606 397.895 15.028 389.539 10.3496 388.961C4.5017 388.238 6.63242 393.337 7.80045 394.539C8.73488 395.5 11.9307 396.889 13.4118 397.463Z" fill="#FF3333"/>
<path d="M16.7895 416.549L27 408.128L25.8962 406.49C20.285 408.362 8.5659 412.994 6.57899 416.549C4.09536 420.994 10.3044 420.76 11.9602 420.175C13.2848 419.708 15.7317 417.563 16.7895 416.549Z" fill="#663300"/>
<path d="M11.9392 410.266L25.8033 406.607L25.6977 404.671C19.586 404.158 6.42607 403.75 2.67997 406.216C-2.00266 409.299 3.75585 411.548 5.57713 411.669C7.03416 411.766 10.4256 410.774 11.9392 410.266Z" fill="#3399CC"/>
<path d="M11.0622 403.551L25.4547 405.119L26.2934 403.318C20.9748 400.691 9.18695 395.669 4.58462 396.592C-1.16829 397.745 2.99065 401.827 4.59072 402.581C5.87077 403.184 9.43842 403.479 11.0622 403.551Z" fill="#CD37CD"/>
<ellipse cx="29" cy="403.99" rx="4" ry="4.5" fill="#E0777D"/>
<path d="M33.9978 463.034L29.7711 474.908L31.705 475.918C35.6257 471.875 43.3948 462.778 43.1061 458.741C42.7452 453.696 37.342 456.517 36.204 457.739C35.2936 458.717 34.3539 461.676 33.9978 463.034Z" fill="#66CC00"/>
<path d="M25.7089 462.833L28.1793 475.065L30.4376 475.223C31.8123 470.102 33.9663 458.987 31.5856 455.494C28.6097 451.127 25.2679 455.726 24.8946 457.256C24.5959 458.48 25.313 461.484 25.7089 462.833Z" fill="#FFFF00"/>
<path d="M18.3248 466.243L27.6563 475.747L29.7004 474.911C27.8752 469.894 23.1967 459.363 19.0839 457.37C13.943 454.878 13.7616 460.291 14.3392 461.774C14.8014 462.96 17.1888 465.247 18.3248 466.243Z" fill="#FF9933"/>
<path d="M13.4118 470.761L26.143 476.714L27.6921 475.299C23.8606 471.193 15.028 462.837 10.3496 462.259C4.5017 461.536 6.63242 466.636 7.80045 467.837C8.73488 468.799 11.9307 470.187 13.4118 470.761Z" fill="#FF3333"/>
<path d="M16.7895 489.848L27 481.426L25.8962 479.789C20.285 481.66 8.5659 486.292 6.57899 489.848C4.09536 494.292 10.3044 494.059 11.9602 493.474C13.2848 493.006 15.7317 490.861 16.7895 489.848Z" fill="#663300"/>
<path d="M11.9392 483.564L25.8033 479.906L25.6977 477.969C19.586 477.457 6.42607 477.048 2.67997 479.515C-2.00266 482.598 3.75585 484.846 5.57713 484.967C7.03416 485.064 10.4256 484.072 11.9392 483.564Z" fill="#3399CC"/>
<path d="M11.0622 476.85L25.4547 478.417L26.2934 476.616C20.9748 473.99 9.18695 468.968 4.58462 469.89C-1.16829 471.043 2.99065 475.125 4.59072 475.879C5.87077 476.483 9.43842 476.778 11.0622 476.85Z" fill="#CD37CD"/>
<ellipse cx="29" cy="477.289" rx="4" ry="4.5" fill="#E0777D"/>
<path d="M33.9978 536.332L29.7711 548.207L31.705 549.217C35.6257 545.173 43.3948 536.076 43.1061 532.04C42.7452 526.994 37.342 529.815 36.204 531.038C35.2936 532.016 34.3539 534.975 33.9978 536.332Z" fill="#66CC00"/>
<path d="M25.7089 536.132L28.1793 548.363L30.4376 548.521C31.8123 543.4 33.9663 532.286 31.5856 528.792C28.6097 524.425 25.2679 529.024 24.8946 530.554C24.5959 531.778 25.313 534.783 25.7089 536.132Z" fill="#FFFF00"/>
<path d="M18.3248 539.541L27.6563 549.046L29.7004 548.209C27.8752 543.193 23.1967 532.661 19.0839 530.668C13.943 528.176 13.7616 533.589 14.3392 535.072C14.8014 536.258 17.1888 538.546 18.3248 539.541Z" fill="#FF9933"/>
<path d="M13.4118 544.059L26.143 550.012L27.6921 548.598C23.8606 544.492 15.028 536.136 10.3496 535.557C4.5017 534.835 6.63242 539.934 7.80045 541.136C8.73488 542.097 11.9307 543.485 13.4118 544.059Z" fill="#FF3333"/>
<path d="M16.7895 563.146L27 554.724L25.8962 553.087C20.285 554.958 8.5659 559.59 6.57899 563.146C4.09536 567.591 10.3044 567.357 11.9602 566.772C13.2848 566.304 15.7317 564.16 16.7895 563.146Z" fill="#663300"/>
<path d="M11.9392 556.862L25.8033 553.204L25.6977 551.267C19.586 550.755 6.42607 550.347 2.67997 552.813C-2.00266 555.896 3.75585 558.144 5.57713 558.266C7.03416 558.363 10.4256 557.371 11.9392 556.862Z" fill="#3399CC"/>
<path d="M11.0622 550.148L25.4547 551.715L26.2934 549.915C20.9748 547.288 9.18695 542.266 4.58462 543.188C-1.16829 544.341 2.99065 548.424 4.59072 549.178C5.87077 549.781 9.43842 550.076 11.0622 550.148Z" fill="#CD37CD"/>
<ellipse cx="29" cy="550.587" rx="4" ry="4.5" fill="#E0777D"/>
<path d="M33.9978 609.63L29.7711 621.504L31.705 622.515C35.6257 618.471 43.3948 609.374 43.1061 605.338C42.7452 600.292 37.342 603.113 36.204 604.335C35.2936 605.313 34.3539 608.273 33.9978 609.63Z" fill="#66CC00"/>
<path d="M25.7089 609.43L28.1793 621.661L30.4376 621.819C31.8123 616.698 33.9663 605.584 31.5856 602.09C28.6097 597.723 25.2679 602.322 24.8946 603.852C24.5959 605.076 25.313 608.08 25.7089 609.43Z" fill="#FFFF00"/>
<path d="M18.3248 612.839L27.6563 622.343L29.7004 621.507C27.8752 616.491 23.1967 605.959 19.0839 603.966C13.943 601.474 13.7616 606.887 14.3392 608.37C14.8014 609.556 17.1888 611.843 18.3248 612.839Z" fill="#FF9933"/>
<path d="M13.4118 617.357L26.143 623.31L27.6921 621.896C23.8606 617.79 15.028 609.433 10.3496 608.855C4.5017 608.132 6.63242 613.232 7.80045 614.433C8.73488 615.395 11.9307 616.783 13.4118 617.357Z" fill="#FF3333"/>
<path d="M16.7895 636.444L27 628.022L25.8962 626.385C20.285 628.256 8.5659 632.888 6.57899 636.444C4.09536 640.889 10.3044 640.655 11.9602 640.07C13.2848 639.602 15.7317 637.458 16.7895 636.444Z" fill="#663300"/>
<path d="M11.9392 630.16L25.8033 626.502L25.6977 624.565C19.586 624.053 6.42607 623.645 2.67997 626.111C-2.00266 629.194 3.75585 631.442 5.57713 631.564C7.03416 631.661 10.4256 630.668 11.9392 630.16Z" fill="#3399CC"/>
<path d="M11.0622 623.446L25.4547 625.013L26.2934 623.212C20.9748 620.586 9.18695 615.564 4.58462 616.486C-1.16829 617.639 2.99065 621.721 4.59072 622.476C5.87077 623.079 9.43842 623.374 11.0622 623.446Z" fill="#CD37CD"/>
<path d="M24.0781 633.48L26.2227 633.293C26.3242 634.152 26.5586 634.859 26.9258 635.414C27.3008 635.961 27.8789 636.406 28.6602 636.75C29.4414 637.086 30.3203 637.254 31.2969 637.254C32.1641 637.254 32.9297 637.125 33.5938 636.867C34.2578 636.609 34.75 636.258 35.0703 635.812C35.3984 635.359 35.5625 634.867 35.5625 634.336C35.5625 633.797 35.4062 633.328 35.0938 632.93C34.7812 632.523 34.2656 632.184 33.5469 631.91C33.0859 631.73 32.0664 631.453 30.4883 631.078C28.9102 630.695 27.8047 630.336 27.1719 630C26.3516 629.57 25.7383 629.039 25.332 628.406C24.9336 627.766 24.7344 627.051 24.7344 626.262C24.7344 625.395 24.9805 624.586 25.4727 623.836C25.9648 623.078 26.6836 622.504 27.6289 622.113C28.5742 621.723 29.625 621.527 30.7812 621.527C32.0547 621.527 33.1758 621.734 34.1445 622.148C35.1211 622.555 35.8711 623.156 36.3945 623.953C36.918 624.75 37.1992 625.652 37.2383 626.66L35.0586 626.824C34.9414 625.738 34.543 624.918 33.8633 624.363C33.1914 623.809 32.1953 623.531 30.875 623.531C29.5 623.531 28.4961 623.785 27.8633 624.293C27.2383 624.793 26.9258 625.398 26.9258 626.109C26.9258 626.727 27.1484 627.234 27.5938 627.633C28.0312 628.031 29.1719 628.441 31.0156 628.863C32.8672 629.277 34.1367 629.641 34.8242 629.953C35.8242 630.414 36.5625 631 37.0391 631.711C37.5156 632.414 37.7539 633.227 37.7539 634.148C37.7539 635.062 37.4922 635.926 36.9688 636.738C36.4453 637.543 35.6914 638.172 34.707 638.625C33.7305 639.07 32.6289 639.293 31.4023 639.293C29.8477 639.293 28.543 639.066 27.4883 638.613C26.4414 638.16 25.6172 637.48 25.0156 636.574C24.4219 635.66 24.1094 634.629 24.0781 633.48ZM40.6016 639V621.82H42.7109V631.617L47.7031 626.555H50.4336L45.6758 631.172L50.9141 639H48.3125L44.1992 632.637L42.7109 634.066V639H40.6016ZM51.8047 632.777C51.8047 630.473 52.4453 628.766 53.7266 627.656C54.7969 626.734 56.1016 626.273 57.6406 626.273C59.3516 626.273 60.75 626.836 61.8359 627.961C62.9219 629.078 63.4648 630.625 63.4648 632.602C63.4648 634.203 63.2227 635.465 62.7383 636.387C62.2617 637.301 61.5625 638.012 60.6406 638.52C59.7266 639.027 58.7266 639.281 57.6406 639.281C55.8984 639.281 54.4883 638.723 53.4102 637.605C52.3398 636.488 51.8047 634.879 51.8047 632.777ZM53.9727 632.777C53.9727 634.371 54.3203 635.566 55.0156 636.363C55.7109 637.152 56.5859 637.547 57.6406 637.547C58.6875 637.547 59.5586 637.148 60.2539 636.352C60.9492 635.555 61.2969 634.34 61.2969 632.707C61.2969 631.168 60.9453 630.004 60.2422 629.215C59.5469 628.418 58.6797 628.02 57.6406 628.02C56.5859 628.02 55.7109 628.414 55.0156 629.203C54.3203 629.992 53.9727 631.184 53.9727 632.777ZM56.4688 625.008L58.0273 621.727H60.793L58.2148 625.008H56.4688ZM65.9023 639V621.82H68.0117V639H65.9023ZM79.4141 637.465C78.6328 638.129 77.8789 638.598 77.1523 638.871C76.4336 639.145 75.6602 639.281 74.832 639.281C73.4648 639.281 72.4141 638.949 71.6797 638.285C70.9453 637.613 70.5781 636.758 70.5781 635.719C70.5781 635.109 70.7148 634.555 70.9883 634.055C71.2695 633.547 71.6328 633.141 72.0781 632.836C72.5312 632.531 73.0391 632.301 73.6016 632.145C74.0156 632.035 74.6406 631.93 75.4766 631.828C77.1797 631.625 78.4336 631.383 79.2383 631.102C79.2461 630.812 79.25 630.629 79.25 630.551C79.25 629.691 79.0508 629.086 78.6523 628.734C78.1133 628.258 77.3125 628.02 76.25 628.02C75.2578 628.02 74.5234 628.195 74.0469 628.547C73.5781 628.891 73.2305 629.504 73.0039 630.387L70.9414 630.105C71.1289 629.223 71.4375 628.512 71.8672 627.973C72.2969 627.426 72.918 627.008 73.7305 626.719C74.543 626.422 75.4844 626.273 76.5547 626.273C77.6172 626.273 78.4805 626.398 79.1445 626.648C79.8086 626.898 80.2969 627.215 80.6094 627.598C80.9219 627.973 81.1406 628.449 81.2656 629.027C81.3359 629.387 81.3711 630.035 81.3711 630.973V633.785C81.3711 635.746 81.4141 636.988 81.5 637.512C81.5938 638.027 81.7734 638.523 82.0391 639H79.8359C79.6172 638.562 79.4766 638.051 79.4141 637.465ZM79.2383 632.754C78.4727 633.066 77.3242 633.332 75.793 633.551C74.9258 633.676 74.3125 633.816 73.9531 633.973C73.5938 634.129 73.3164 634.359 73.1211 634.664C72.9258 634.961 72.8281 635.293 72.8281 635.66C72.8281 636.223 73.0391 636.691 73.4609 637.066C73.8906 637.441 74.5156 637.629 75.3359 637.629C76.1484 637.629 76.8711 637.453 77.5039 637.102C78.1367 636.742 78.6016 636.254 78.8984 635.637C79.125 635.16 79.2383 634.457 79.2383 633.527V632.754ZM88.1094 639L83.375 626.555H85.6016L88.2734 634.008C88.5625 634.812 88.8281 635.648 89.0703 636.516C89.2578 635.859 89.5195 635.07 89.8555 634.148L92.6211 626.555H94.7891L90.0781 639H88.1094ZM105.172 634.992L107.352 635.262C107.008 636.535 106.371 637.523 105.441 638.227C104.512 638.93 103.324 639.281 101.879 639.281C100.059 639.281 98.6133 638.723 97.543 637.605C96.4805 636.48 95.9492 634.906 95.9492 632.883C95.9492 630.789 96.4883 629.164 97.5664 628.008C98.6445 626.852 100.043 626.273 101.762 626.273C103.426 626.273 104.785 626.84 105.84 627.973C106.895 629.105 107.422 630.699 107.422 632.754C107.422 632.879 107.418 633.066 107.41 633.316H98.1289C98.207 634.684 98.5938 635.73 99.2891 636.457C99.9844 637.184 100.852 637.547 101.891 637.547C102.664 637.547 103.324 637.344 103.871 636.938C104.418 636.531 104.852 635.883 105.172 634.992ZM98.2461 631.582H105.195C105.102 630.535 104.836 629.75 104.398 629.227C103.727 628.414 102.855 628.008 101.785 628.008C100.816 628.008 100 628.332 99.3359 628.98C98.6797 629.629 98.3164 630.496 98.2461 631.582ZM110.516 639V628.195H108.652V626.555H110.516V625.23C110.516 624.395 110.59 623.773 110.738 623.367C110.941 622.82 111.297 622.379 111.805 622.043C112.32 621.699 113.039 621.527 113.961 621.527C114.555 621.527 115.211 621.598 115.93 621.738L115.613 623.578C115.176 623.5 114.762 623.461 114.371 623.461C113.73 623.461 113.277 623.598 113.012 623.871C112.746 624.145 112.613 624.656 112.613 625.406V626.555H115.039V628.195H112.613V639H110.516ZM124.848 639V637.172C123.879 638.578 122.562 639.281 120.898 639.281C120.164 639.281 119.477 639.141 118.836 638.859C118.203 638.578 117.73 638.227 117.418 637.805C117.113 637.375 116.898 636.852 116.773 636.234C116.688 635.82 116.645 635.164 116.645 634.266V626.555H118.754V633.457C118.754 634.559 118.797 635.301 118.883 635.684C119.016 636.238 119.297 636.676 119.727 636.996C120.156 637.309 120.688 637.465 121.32 637.465C121.953 637.465 122.547 637.305 123.102 636.984C123.656 636.656 124.047 636.215 124.273 635.66C124.508 635.098 124.625 634.285 124.625 633.223V626.555H126.734V639H124.848ZM130.027 639V626.555H131.926V628.441C132.41 627.559 132.855 626.977 133.262 626.695C133.676 626.414 134.129 626.273 134.621 626.273C135.332 626.273 136.055 626.5 136.789 626.953L136.062 628.91C135.547 628.605 135.031 628.453 134.516 628.453C134.055 628.453 133.641 628.594 133.273 628.875C132.906 629.148 132.645 629.531 132.488 630.023C132.254 630.773 132.137 631.594 132.137 632.484V639H130.027ZM138.055 624.246V621.82H140.164V624.246H138.055ZM138.055 639V626.555H140.164V639H138.055ZM143.387 639V626.555H145.285V628.324C146.199 626.957 147.52 626.273 149.246 626.273C149.996 626.273 150.684 626.41 151.309 626.684C151.941 626.949 152.414 627.301 152.727 627.738C153.039 628.176 153.258 628.695 153.383 629.297C153.461 629.688 153.5 630.371 153.5 631.348V639H151.391V631.43C151.391 630.57 151.309 629.93 151.145 629.508C150.98 629.078 150.688 628.738 150.266 628.488C149.852 628.23 149.363 628.102 148.801 628.102C147.902 628.102 147.125 628.387 146.469 628.957C145.82 629.527 145.496 630.609 145.496 632.203V639H143.387ZM156.746 639V626.555H158.645V628.324C159.559 626.957 160.879 626.273 162.605 626.273C163.355 626.273 164.043 626.41 164.668 626.684C165.301 626.949 165.773 627.301 166.086 627.738C166.398 628.176 166.617 628.695 166.742 629.297C166.82 629.688 166.859 630.371 166.859 631.348V639H164.75V631.43C164.75 630.57 164.668 629.93 164.504 629.508C164.34 629.078 164.047 628.738 163.625 628.488C163.211 628.23 162.723 628.102 162.16 628.102C161.262 628.102 160.484 628.387 159.828 628.957C159.18 629.527 158.855 630.609 158.855 632.203V639H156.746ZM170.703 639V636.598H173.105V639H170.703ZM176.797 624.246V621.82H178.906V624.246H176.797ZM176.797 639V626.555H178.906V639H176.797ZM181.285 635.285L183.371 634.957C183.488 635.793 183.812 636.434 184.344 636.879C184.883 637.324 185.633 637.547 186.594 637.547C187.562 637.547 188.281 637.352 188.75 636.961C189.219 636.562 189.453 636.098 189.453 635.566C189.453 635.09 189.246 634.715 188.832 634.441C188.543 634.254 187.824 634.016 186.676 633.727C185.129 633.336 184.055 633 183.453 632.719C182.859 632.43 182.406 632.035 182.094 631.535C181.789 631.027 181.637 630.469 181.637 629.859C181.637 629.305 181.762 628.793 182.012 628.324C182.27 627.848 182.617 627.453 183.055 627.141C183.383 626.898 183.828 626.695 184.391 626.531C184.961 626.359 185.57 626.273 186.219 626.273C187.195 626.273 188.051 626.414 188.785 626.695C189.527 626.977 190.074 627.359 190.426 627.844C190.777 628.32 191.02 628.961 191.152 629.766L189.09 630.047C188.996 629.406 188.723 628.906 188.27 628.547C187.824 628.188 187.191 628.008 186.371 628.008C185.402 628.008 184.711 628.168 184.297 628.488C183.883 628.809 183.676 629.184 183.676 629.613C183.676 629.887 183.762 630.133 183.934 630.352C184.105 630.578 184.375 630.766 184.742 630.914C184.953 630.992 185.574 631.172 186.605 631.453C188.098 631.852 189.137 632.18 189.723 632.438C190.316 632.688 190.781 633.055 191.117 633.539C191.453 634.023 191.621 634.625 191.621 635.344C191.621 636.047 191.414 636.711 191 637.336C190.594 637.953 190.004 638.434 189.23 638.777C188.457 639.113 187.582 639.281 186.605 639.281C184.988 639.281 183.754 638.945 182.902 638.273C182.059 637.602 181.52 636.605 181.285 635.285Z" fill="black"/>
</svg>
