<svg width="50" height="40" viewBox="0 0 50 40" fill="none" xmlns="http://www.w3.org/2000/svg">
<path d="M33.9978 10.2454L29.7711 22.1198L31.7049 23.13C35.6256 19.0862 43.3947 9.98949 43.106 5.95294C42.7452 0.907254 37.342 3.72813 36.2039 4.95072C35.2935 5.9288 34.3538 8.88803 33.9978 10.2454Z" fill="#66CC00"/>
<path d="M25.7089 10.045L28.1792 22.2765L30.4376 22.4342C31.8122 17.3136 33.9663 6.19904 31.5855 2.70532C28.6096 -1.66183 25.2678 2.93736 24.8945 4.46729C24.5959 5.69123 25.313 8.69572 25.7089 10.045Z" fill="#FFFF00"/>
<path d="M18.3247 13.454L27.6562 22.9588L29.7004 22.1225C27.8752 17.106 23.1966 6.57464 19.0839 4.58122C13.9429 2.08944 13.7616 7.50264 14.3392 8.98536C14.8013 10.1715 17.1888 12.4587 18.3247 13.454Z" fill="#FF9933"/>
<path d="M13.4118 17.9726L26.143 23.9256L27.692 22.5109C23.8605 18.405 15.0279 10.0487 10.3496 9.47052C4.50164 8.74778 6.63236 13.8472 7.80039 15.0489C8.73482 16.0102 11.9307 17.3986 13.4118 17.9726Z" fill="#FF3333"/>
<path d="M17.7896 36.0593L28.0001 27.6377L26.8962 26.0001C21.2851 27.8716 9.56596 32.5035 7.57905 36.0593C5.09542 40.504 11.3045 40.2701 12.9603 39.6853C14.2849 39.2174 16.7317 37.073 17.7896 36.0593Z" fill="#663300"/>
<path d="M11.9391 30.7755L25.8033 27.1171L25.6977 25.1806C19.586 24.6682 6.42601 24.2599 2.67991 26.7263C-2.00272 29.8092 3.75579 32.0575 5.57707 32.1789C7.03409 32.276 10.4255 31.2837 11.9391 30.7755Z" fill="#3399CC"/>
<path d="M11.0622 24.0611L25.4546 25.6286L26.2933 23.8277C20.9747 21.2013 9.18689 16.1791 4.58456 17.1015C-1.16835 18.2544 2.99059 22.3368 4.59066 23.091C5.87071 23.6943 9.43836 23.9891 11.0622 24.0611Z" fill="#CD37CD"/>
<ellipse cx="28.9999" cy="24.5001" rx="4" ry="4.5" fill="#E0777D"/>
</svg>
