<svg width="70" height="49" viewBox="0 0 70 49" fill="none" xmlns="http://www.w3.org/2000/svg">
<path d="M31 38L1 38" stroke="black" stroke-linecap="round"/>
<path d="M0.646484 38.1542L11 26.9474" stroke="black" stroke-linecap="round"/>
<path d="M1 38.5264L11 48.0001" stroke="black" stroke-linecap="round"/>
<path d="M2.41406 15V3.54688H6.71094C7.58594 3.54688 8.28646 3.66406 8.8125 3.89844C9.34375 4.1276 9.75781 4.48438 10.0547 4.96875C10.3568 5.44792 10.5078 5.95052 10.5078 6.47656C10.5078 6.96615 10.375 7.42708 10.1094 7.85938C9.84375 8.29167 9.44271 8.64062 8.90625 8.90625C9.59896 9.10938 10.1302 9.45573 10.5 9.94531C10.875 10.4349 11.0625 11.013 11.0625 11.6797C11.0625 12.2161 10.9479 12.7161 10.7188 13.1797C10.4948 13.638 10.2161 13.9922 9.88281 14.2422C9.54948 14.4922 9.13021 14.6823 8.625 14.8125C8.125 14.9375 7.51042 15 6.78125 15H2.41406ZM3.92969 8.35938H6.40625C7.07812 8.35938 7.5599 8.3151 7.85156 8.22656C8.23698 8.11198 8.52604 7.92188 8.71875 7.65625C8.91667 7.39062 9.01562 7.05729 9.01562 6.65625C9.01562 6.27604 8.92448 5.94271 8.74219 5.65625C8.5599 5.36458 8.29948 5.16667 7.96094 5.0625C7.6224 4.95312 7.04167 4.89844 6.21875 4.89844H3.92969V8.35938ZM3.92969 13.6484H6.78125C7.27083 13.6484 7.61458 13.6302 7.8125 13.5938C8.16146 13.5312 8.45312 13.4271 8.6875 13.2812C8.92188 13.1354 9.11458 12.9245 9.26562 12.6484C9.41667 12.3672 9.49219 12.0443 9.49219 11.6797C9.49219 11.2526 9.38281 10.8828 9.16406 10.5703C8.94531 10.2526 8.64062 10.0312 8.25 9.90625C7.86458 9.77604 7.30729 9.71094 6.57812 9.71094H3.92969V13.6484ZM12.9062 18.1953L12.75 16.875C13.0573 16.9583 13.3255 17 13.5547 17C13.8672 17 14.1172 16.9479 14.3047 16.8438C14.4922 16.7396 14.6458 16.5938 14.7656 16.4062C14.8542 16.2656 14.9974 15.9167 15.1953 15.3594C15.2214 15.2812 15.263 15.1667 15.3203 15.0156L12.1719 6.70312H13.6875L15.4141 11.5078C15.638 12.1172 15.8385 12.7578 16.0156 13.4297C16.1771 12.7839 16.3698 12.1536 16.5938 11.5391L18.3672 6.70312H19.7734L16.6172 15.1406C16.2786 16.0521 16.0156 16.6797 15.8281 17.0234C15.5781 17.487 15.2917 17.8255 14.9688 18.0391C14.6458 18.2578 14.2604 18.3672 13.8125 18.3672C13.5417 18.3672 13.2396 18.3099 12.9062 18.1953ZM20.9531 15V6.70312H22.2188V7.96094C22.5417 7.3724 22.8385 6.98438 23.1094 6.79688C23.3854 6.60938 23.6875 6.51562 24.0156 6.51562C24.4896 6.51562 24.9714 6.66667 25.4609 6.96875L24.9766 8.27344C24.6328 8.07031 24.2891 7.96875 23.9453 7.96875C23.638 7.96875 23.362 8.0625 23.1172 8.25C22.8724 8.43229 22.6979 8.6875 22.5938 9.01562C22.4375 9.51562 22.3594 10.0625 22.3594 10.6562V15H20.9531ZM26.2891 5.17969V3.54688H27.6953V5.17969H26.2891ZM24.5078 18.2188L24.7734 17.0234C25.0547 17.0964 25.276 17.1328 25.4375 17.1328C25.724 17.1328 25.9375 17.0365 26.0781 16.8438C26.2188 16.6562 26.2891 16.1823 26.2891 15.4219V6.70312H27.6953V15.4531C27.6953 16.474 27.5625 17.1849 27.2969 17.5859C26.9583 18.1068 26.3958 18.3672 25.6094 18.3672C25.2292 18.3672 24.862 18.3177 24.5078 18.2188ZM35.5391 12.3281L36.9922 12.5078C36.763 13.3568 36.3385 14.0156 35.7188 14.4844C35.099 14.9531 34.3073 15.1875 33.3438 15.1875C32.1302 15.1875 31.1667 14.8151 30.4531 14.0703C29.7448 13.3203 29.3906 12.2708 29.3906 10.9219C29.3906 9.52604 29.75 8.44271 30.4688 7.67188C31.1875 6.90104 32.1198 6.51562 33.2656 6.51562C34.375 6.51562 35.2812 6.89323 35.9844 7.64844C36.6875 8.40365 37.0391 9.46615 37.0391 10.8359C37.0391 10.9193 37.0365 11.0443 37.0312 11.2109H30.8438C30.8958 12.1224 31.1536 12.8203 31.6172 13.3047C32.0807 13.7891 32.6589 14.0312 33.3516 14.0312C33.8672 14.0312 34.3073 13.8958 34.6719 13.625C35.0365 13.3542 35.3255 12.9219 35.5391 12.3281ZM30.9219 10.0547H35.5547C35.4922 9.35677 35.3151 8.83333 35.0234 8.48438C34.5755 7.94271 33.9948 7.67188 33.2812 7.67188C32.6354 7.67188 32.0911 7.88802 31.6484 8.32031C31.2109 8.7526 30.9688 9.33073 30.9219 10.0547ZM38.7656 15V6.70312H40.0312V7.88281C40.6406 6.97135 41.5208 6.51562 42.6719 6.51562C43.1719 6.51562 43.6302 6.60677 44.0469 6.78906C44.4688 6.96615 44.7839 7.20052 44.9922 7.49219C45.2005 7.78385 45.3464 8.13021 45.4297 8.53125C45.4818 8.79167 45.5078 9.2474 45.5078 9.89844V15H44.1016V9.95312C44.1016 9.38021 44.0469 8.95312 43.9375 8.67188C43.8281 8.38542 43.6328 8.15885 43.3516 7.99219C43.0755 7.82031 42.75 7.73438 42.375 7.73438C41.776 7.73438 41.2578 7.92448 40.8203 8.30469C40.388 8.6849 40.1719 9.40625 40.1719 10.4688V15H38.7656ZM53.0547 15V13.9531C52.5286 14.776 51.7552 15.1875 50.7344 15.1875C50.0729 15.1875 49.4635 15.0052 48.9062 14.6406C48.3542 14.276 47.9245 13.7682 47.6172 13.1172C47.3151 12.4609 47.1641 11.7083 47.1641 10.8594C47.1641 10.0312 47.3021 9.28125 47.5781 8.60938C47.8542 7.93229 48.2682 7.41406 48.8203 7.05469C49.3724 6.69531 49.9896 6.51562 50.6719 6.51562C51.1719 6.51562 51.6172 6.6224 52.0078 6.83594C52.3984 7.04427 52.7161 7.31771 52.9609 7.65625V3.54688H54.3594V15H53.0547ZM48.6094 10.8594C48.6094 11.9219 48.8333 12.7161 49.2812 13.2422C49.7292 13.7682 50.2578 14.0312 50.8672 14.0312C51.4818 14.0312 52.0026 13.7812 52.4297 13.2812C52.862 12.776 53.0781 12.0078 53.0781 10.9766C53.0781 9.84115 52.8594 9.00781 52.4219 8.47656C51.9844 7.94531 51.4453 7.67969 50.8047 7.67969C50.1797 7.67969 49.6562 7.9349 49.2344 8.44531C48.8177 8.95573 48.6094 9.76042 48.6094 10.8594ZM62.0156 15V13.7812C61.3698 14.7188 60.4922 15.1875 59.3828 15.1875C58.8932 15.1875 58.4349 15.0938 58.0078 14.9062C57.5859 14.7188 57.2708 14.4844 57.0625 14.2031C56.8594 13.9167 56.7161 13.5677 56.6328 13.1562C56.5755 12.8802 56.5469 12.4427 56.5469 11.8438V6.70312H57.9531V11.3047C57.9531 12.0391 57.9818 12.5339 58.0391 12.7891C58.1276 13.1589 58.3151 13.4505 58.6016 13.6641C58.888 13.8724 59.2422 13.9766 59.6641 13.9766C60.0859 13.9766 60.4818 13.8698 60.8516 13.6562C61.2214 13.4375 61.4818 13.1432 61.6328 12.7734C61.7891 12.3984 61.8672 11.8568 61.8672 11.1484V6.70312H63.2734V15H62.0156ZM65.4688 15V6.70312H66.7344V7.96094C67.0573 7.3724 67.3542 6.98438 67.625 6.79688C67.901 6.60938 68.2031 6.51562 68.5312 6.51562C69.0052 6.51562 69.487 6.66667 69.9766 6.96875L69.4922 8.27344C69.1484 8.07031 68.8047 7.96875 68.4609 7.96875C68.1536 7.96875 67.8776 8.0625 67.6328 8.25C67.388 8.43229 67.2135 8.6875 67.1094 9.01562C66.9531 9.51562 66.875 10.0625 66.875 10.6562V15H65.4688Z" fill="black"/>
</svg>
