<svg width="60" height="49" viewBox="0 0 60 49" fill="none" xmlns="http://www.w3.org/2000/svg">
<path d="M31 38L1 38" stroke="black" stroke-linecap="round"/>
<path d="M0.646484 38.1542L11 26.9474" stroke="black" stroke-linecap="round"/>
<path d="M1 38.5264L11 48.0001" stroke="black" stroke-linecap="round"/>
<path d="M2.625 15V3.54688H4.14062V15H2.625ZM2.23438 2.84375L3.27344 0.65625H5.11719L3.39844 2.84375H2.23438ZM6.07812 12.5234L7.46875 12.3047C7.54688 12.862 7.76302 13.2891 8.11719 13.5859C8.47656 13.8828 8.97656 14.0312 9.61719 14.0312C10.263 14.0312 10.7422 13.901 11.0547 13.6406C11.3672 13.375 11.5234 13.0651 11.5234 12.7109C11.5234 12.3932 11.3854 12.1432 11.1094 11.9609C10.9167 11.8359 10.4375 11.6771 9.67188 11.4844C8.64062 11.224 7.92448 11 7.52344 10.8125C7.1276 10.6198 6.82552 10.3568 6.61719 10.0234C6.41406 9.6849 6.3125 9.3125 6.3125 8.90625C6.3125 8.53646 6.39583 8.19531 6.5625 7.88281C6.73438 7.5651 6.96615 7.30208 7.25781 7.09375C7.47656 6.93229 7.77344 6.79688 8.14844 6.6875C8.52865 6.57292 8.9349 6.51562 9.36719 6.51562C10.0182 6.51562 10.5885 6.60938 11.0781 6.79688C11.5729 6.98438 11.9375 7.23958 12.1719 7.5625C12.4062 7.88021 12.5677 8.30729 12.6562 8.84375L11.2812 9.03125C11.2188 8.60417 11.0365 8.27083 10.7344 8.03125C10.4375 7.79167 10.0156 7.67188 9.46875 7.67188C8.82292 7.67188 8.36198 7.77865 8.08594 7.99219C7.8099 8.20573 7.67188 8.45573 7.67188 8.74219C7.67188 8.92448 7.72917 9.08854 7.84375 9.23438C7.95833 9.38542 8.13802 9.51042 8.38281 9.60938C8.52344 9.66146 8.9375 9.78125 9.625 9.96875C10.6198 10.2344 11.3125 10.4531 11.7031 10.625C12.099 10.7917 12.4089 11.0365 12.6328 11.3594C12.8568 11.6823 12.9688 12.0833 12.9688 12.5625C12.9688 13.0312 12.8307 13.474 12.5547 13.8906C12.2839 14.3021 11.8906 14.6224 11.375 14.8516C10.8594 15.0755 10.276 15.1875 9.625 15.1875C8.54688 15.1875 7.72396 14.9635 7.15625 14.5156C6.59375 14.0677 6.23438 13.4036 6.07812 12.5234ZM14.6094 15V3.54688H16.0156V15H14.6094ZM23.8828 12.3281L25.3359 12.5078C25.1068 13.3568 24.6823 14.0156 24.0625 14.4844C23.4427 14.9531 22.651 15.1875 21.6875 15.1875C20.474 15.1875 19.5104 14.8151 18.7969 14.0703C18.0885 13.3203 17.7344 12.2708 17.7344 10.9219C17.7344 9.52604 18.0938 8.44271 18.8125 7.67188C19.5312 6.90104 20.4635 6.51562 21.6094 6.51562C22.7188 6.51562 23.625 6.89323 24.3281 7.64844C25.0312 8.40365 25.3828 9.46615 25.3828 10.8359C25.3828 10.9193 25.3802 11.0443 25.375 11.2109H19.1875C19.2396 12.1224 19.4974 12.8203 19.9609 13.3047C20.4245 13.7891 21.0026 14.0312 21.6953 14.0312C22.2109 14.0312 22.651 13.8958 23.0156 13.625C23.3802 13.3542 23.6693 12.9219 23.8828 12.3281ZM19.2656 10.0547H23.8984C23.8359 9.35677 23.6589 8.83333 23.3672 8.48438C22.9193 7.94271 22.3385 7.67188 21.625 7.67188C20.9792 7.67188 20.4349 7.88802 19.9922 8.32031C19.5547 8.7526 19.3125 9.33073 19.2656 10.0547ZM27.1094 15V6.70312H28.375V7.88281C28.9844 6.97135 29.8646 6.51562 31.0156 6.51562C31.5156 6.51562 31.974 6.60677 32.3906 6.78906C32.8125 6.96615 33.1276 7.20052 33.3359 7.49219C33.5443 7.78385 33.6901 8.13021 33.7734 8.53125C33.8255 8.79167 33.8516 9.2474 33.8516 9.89844V15H32.4453V9.95312C32.4453 9.38021 32.3906 8.95312 32.2812 8.67188C32.1719 8.38542 31.9766 8.15885 31.6953 7.99219C31.4193 7.82031 31.0938 7.73438 30.7188 7.73438C30.1198 7.73438 29.6016 7.92448 29.1641 8.30469C28.7318 8.6849 28.5156 9.40625 28.5156 10.4688V15H27.1094ZM35.4531 12.5234L36.8438 12.3047C36.9219 12.862 37.138 13.2891 37.4922 13.5859C37.8516 13.8828 38.3516 14.0312 38.9922 14.0312C39.638 14.0312 40.1172 13.901 40.4297 13.6406C40.7422 13.375 40.8984 13.0651 40.8984 12.7109C40.8984 12.3932 40.7604 12.1432 40.4844 11.9609C40.2917 11.8359 39.8125 11.6771 39.0469 11.4844C38.0156 11.224 37.2995 11 36.8984 10.8125C36.5026 10.6198 36.2005 10.3568 35.9922 10.0234C35.7891 9.6849 35.6875 9.3125 35.6875 8.90625C35.6875 8.53646 35.7708 8.19531 35.9375 7.88281C36.1094 7.5651 36.3411 7.30208 36.6328 7.09375C36.8516 6.93229 37.1484 6.79688 37.5234 6.6875C37.9036 6.57292 38.3099 6.51562 38.7422 6.51562C39.3932 6.51562 39.9635 6.60938 40.4531 6.79688C40.9479 6.98438 41.3125 7.23958 41.5469 7.5625C41.7812 7.88021 41.9427 8.30729 42.0312 8.84375L40.6562 9.03125C40.5938 8.60417 40.4115 8.27083 40.1094 8.03125C39.8125 7.79167 39.3906 7.67188 38.8438 7.67188C38.1979 7.67188 37.737 7.77865 37.4609 7.99219C37.1849 8.20573 37.0469 8.45573 37.0469 8.74219C37.0469 8.92448 37.1042 9.08854 37.2188 9.23438C37.3333 9.38542 37.513 9.51042 37.7578 9.60938C37.8984 9.66146 38.3125 9.78125 39 9.96875C39.9948 10.2344 40.6875 10.4531 41.0781 10.625C41.474 10.7917 41.7839 11.0365 42.0078 11.3594C42.2318 11.6823 42.3438 12.0833 42.3438 12.5625C42.3438 13.0312 42.2057 13.474 41.9297 13.8906C41.6589 14.3021 41.2656 14.6224 40.75 14.8516C40.2344 15.0755 39.651 15.1875 39 15.1875C37.9219 15.1875 37.099 14.9635 36.5312 14.5156C35.9688 14.0677 35.6094 13.4036 35.4531 12.5234ZM44.0234 15V3.54688H45.4297V10.0781L48.7578 6.70312H50.5781L47.4062 9.78125L50.8984 15H49.1641L46.4219 10.7578L45.4297 11.7109V15H44.0234ZM57.4297 13.9766C56.9089 14.4193 56.4062 14.7318 55.9219 14.9141C55.4427 15.0964 54.9271 15.1875 54.375 15.1875C53.4635 15.1875 52.763 14.9661 52.2734 14.5234C51.7839 14.0755 51.5391 13.5052 51.5391 12.8125C51.5391 12.4062 51.6302 12.0365 51.8125 11.7031C52 11.3646 52.2422 11.0938 52.5391 10.8906C52.8411 10.6875 53.1797 10.5339 53.5547 10.4297C53.8307 10.3568 54.2474 10.2865 54.8047 10.2188C55.9401 10.0833 56.776 9.92188 57.3125 9.73438C57.3177 9.54167 57.3203 9.41927 57.3203 9.36719C57.3203 8.79427 57.1875 8.39062 56.9219 8.15625C56.5625 7.83854 56.0286 7.67969 55.3203 7.67969C54.6589 7.67969 54.1693 7.79688 53.8516 8.03125C53.5391 8.26042 53.3073 8.66927 53.1562 9.25781L51.7812 9.07031C51.9062 8.48177 52.112 8.00781 52.3984 7.64844C52.6849 7.28385 53.099 7.00521 53.6406 6.8125C54.1823 6.61458 54.8099 6.51562 55.5234 6.51562C56.2318 6.51562 56.8073 6.59896 57.25 6.76562C57.6927 6.93229 58.0182 7.14323 58.2266 7.39844C58.4349 7.64844 58.5807 7.96615 58.6641 8.35156C58.7109 8.59115 58.7344 9.02344 58.7344 9.64844V11.5234C58.7344 12.8307 58.763 13.6589 58.8203 14.0078C58.8828 14.3516 59.0026 14.6823 59.1797 15H57.7109C57.5651 14.7083 57.4714 14.3672 57.4297 13.9766ZM57.3125 10.8359C56.8021 11.0443 56.0365 11.2214 55.0156 11.3672C54.4375 11.4505 54.0286 11.5443 53.7891 11.6484C53.5495 11.7526 53.3646 11.9062 53.2344 12.1094C53.1042 12.3073 53.0391 12.5286 53.0391 12.7734C53.0391 13.1484 53.1797 13.4609 53.4609 13.7109C53.7474 13.9609 54.1641 14.0859 54.7109 14.0859C55.2526 14.0859 55.7344 13.9688 56.1562 13.7344C56.5781 13.4948 56.888 13.1693 57.0859 12.7578C57.237 12.4401 57.3125 11.9714 57.3125 11.3516V10.8359Z" fill="black"/>
</svg>
