<svg width="44" height="52" viewBox="0 0 44 52" fill="none" xmlns="http://www.w3.org/2000/svg">
<path d="M11.2308 1L11.2393 51" stroke="black" stroke-width="2" stroke-linecap="round"/>
<path d="M2.8897 37.3855C2.57251 36.9334 1.91706 36.7713 1.42569 37.0235C0.934327 37.2756 0.793123 37.8465 1.1103 38.2987L2.8897 37.3855ZM1.1103 38.2987L10.3411 51.4566L12.1205 50.5434L2.8897 37.3855L1.1103 38.2987Z" fill="black"/>
<path d="M21.3512 38.2987C21.6684 37.8465 21.5272 37.2756 21.0359 37.0235C20.5445 36.7713 19.889 36.9334 19.5718 37.3856L21.3512 38.2987ZM12.1205 51.4566L21.3512 38.2987L19.5718 37.3856L10.3411 50.5434L12.1205 51.4566Z" fill="black"/>
<path d="M32.7692 51L32.7774 1" stroke="black" stroke-width="2" stroke-linecap="round"/>
<path d="M24.4281 14.6145C24.111 15.0666 23.4555 15.2287 22.9641 14.9765C22.4728 14.7244 22.3316 14.1535 22.6488 13.7013L24.4281 14.6145ZM22.6488 13.7013L31.8795 0.543448L33.6589 1.45656L24.4281 14.6145L22.6488 13.7013Z" fill="black"/>
<path d="M42.8897 13.7013C43.2069 14.1535 43.0657 14.7244 42.5743 14.9765C42.0829 15.2287 41.4275 15.0666 41.1103 14.6144L42.8897 13.7013ZM33.6589 0.543446L42.8897 13.7013L41.1103 14.6144L31.8795 1.45655L33.6589 0.543446Z" fill="black"/>
</svg>
