<svg width="30" height="40" viewBox="0 0 30 40" fill="none" xmlns="http://www.w3.org/2000/svg">
<path d="M10.9231 9L10.9266 30.5" stroke="black" stroke-linecap="round"/>
<path d="M7.44375 24.6117C7.28641 24.3848 6.96018 24.304 6.7151 24.4312C6.47002 24.5585 6.3989 24.8456 6.55625 25.0725L7.44375 24.6117ZM6.55625 25.0725L10.4793 30.7304L11.3668 30.2696L7.44375 24.6117L6.55625 25.0725Z" fill="black"/>
<path d="M15.2899 25.0725C15.4473 24.8456 15.3762 24.5585 15.1311 24.4312C14.886 24.304 14.5598 24.3848 14.4024 24.6117L15.2899 25.0725ZM11.3669 30.7304L15.2899 25.0725L14.4024 24.6117L10.4793 30.2696L11.3669 30.7304Z" fill="black"/>
<path d="M20.0769 30.5L20.0804 9" stroke="black" stroke-linecap="round"/>
<path d="M16.5976 14.8883C16.4403 15.1152 16.114 15.196 15.869 15.0688C15.6239 14.9415 15.5528 14.6544 15.7101 14.4275L16.5976 14.8883ZM15.7101 14.4275L19.6332 8.76961L20.5207 9.2304L16.5976 14.8883L15.7101 14.4275Z" fill="black"/>
<path d="M24.4437 14.4275C24.6011 14.6544 24.53 14.9415 24.2849 15.0688C24.0398 15.196 23.7136 15.1152 23.5562 14.8883L24.4437 14.4275ZM20.5207 8.7696L24.4437 14.4275L23.5562 14.8883L19.6331 9.2304L20.5207 8.7696Z" fill="black"/>
</svg>
