<svg width="51" height="51" viewBox="0 0 51 51" fill="none" xmlns="http://www.w3.org/2000/svg">
<path d="M20.9336 14.9652C20.9336 16.4887 20.9336 17.9652 21.4141 19.348C16.3633 25.2777 3.02734 40.9457 1.78516 42.141C1.53827 42.3625 1.34078 42.6335 1.2055 42.9364C1.07023 43.2392 1.00021 43.5671 1 43.8988C1 44.8949 1.60937 45.8559 2.125 46.3949C2.89844 47.2035 6.20312 50.2621 6.8125 49.6762C8.61719 47.9184 8.98047 47.4496 9.71875 46.723C10.832 45.6332 9.60156 43.4066 9.98828 42.5043C10.375 41.602 10.7852 41.4262 11.4531 41.2855C12.1211 41.1449 13.3047 41.6254 14.2305 41.6371C15.2031 41.6488 15.7305 41.2387 16.457 40.559C17.043 40.0199 17.4648 39.516 17.4766 38.7309C17.5 37.6762 15.9766 36.2816 17.1133 35.1684C18.25 34.0551 19.8906 35.8949 21.0977 35.7543C22.3047 35.6137 23.7695 33.9379 23.9219 33.223C24.0742 32.5082 22.5508 30.6684 22.7852 29.6254C22.8672 29.2738 23.582 28.4535 24.1211 28.3363C24.6602 28.2191 27.0508 29.1449 27.5898 29.0277C28.2461 28.8871 29.0078 28.1957 29.6289 27.809C31.4453 28.5941 33.0977 28.9105 35.2188 28.9105C43.2461 28.9105 49.75 22.6527 49.75 14.9418C49.75 7.23086 43.2461 1 35.2188 1C27.1914 1 20.9336 7.2543 20.9336 14.9652ZM42.25 12.25C42.25 12.9917 42.0301 13.7167 41.618 14.3334C41.206 14.9501 40.6203 15.4307 39.9351 15.7145C39.2498 15.9984 38.4958 16.0726 37.7684 15.9279C37.041 15.7833 36.3728 15.4261 35.8484 14.9016C35.3239 14.3772 34.9667 13.709 34.8221 12.9816C34.6774 12.2542 34.7516 11.5002 35.0355 10.8149C35.3193 10.1297 35.7999 9.54404 36.4166 9.13199C37.0333 8.71993 37.7583 8.5 38.5 8.5C39.4946 8.5 40.4484 8.89509 41.1516 9.59835C41.8549 10.3016 42.25 11.2554 42.25 12.25Z" stroke="black" stroke-width="2" stroke-linejoin="round"/>
</svg>
