<svg width="26" height="26" viewBox="0 0 26 26" fill="none" xmlns="http://www.w3.org/2000/svg">
<path d="M10.9668 7.98262C10.9668 8.74434 10.9668 9.48262 11.207 10.174C8.68164 13.1389 2.01367 20.9729 1.39258 21.5705C1.26914 21.6813 1.17039 21.8168 1.10275 21.9682C1.03512 22.1196 1.00011 22.2836 1 22.4494C1 22.9475 1.30469 23.4279 1.5625 23.6975C1.94922 24.1018 3.60156 25.6311 3.90625 25.3381C4.80859 24.4592 4.99023 24.2248 5.35938 23.8615C5.91602 23.3166 5.30078 22.2033 5.49414 21.7521C5.6875 21.301 5.89258 21.2131 6.22656 21.1428C6.56055 21.0725 7.15234 21.3127 7.61523 21.3186C8.10156 21.3244 8.36523 21.1193 8.72852 20.7795C9.02148 20.51 9.23242 20.258 9.23828 19.8654C9.25 19.3381 8.48828 18.6408 9.05664 18.0842C9.625 17.5275 10.4453 18.4475 11.0488 18.3771C11.6523 18.3068 12.3848 17.4689 12.4609 17.1115C12.5371 16.7541 11.7754 15.8342 11.8926 15.3127C11.9336 15.1369 12.291 14.7268 12.5605 14.6682C12.8301 14.6096 14.0254 15.0725 14.2949 15.0139C14.623 14.9436 15.0039 14.5979 15.3145 14.4045C16.2227 14.7971 17.0488 14.9553 18.1094 14.9553C22.123 14.9553 25.375 11.8264 25.375 7.9709C25.375 4.11543 22.123 1 18.1094 1C14.0957 1 10.9668 4.12715 10.9668 7.98262ZM21.625 6.625C21.625 6.99584 21.515 7.35835 21.309 7.66669C21.103 7.97504 20.8101 8.21536 20.4675 8.35727C20.1249 8.49919 19.7479 8.53632 19.3842 8.46397C19.0205 8.39163 18.6864 8.21305 18.4242 7.95082C18.162 7.6886 17.9834 7.35451 17.911 6.99079C17.8387 6.62708 17.8758 6.25008 18.0177 5.90747C18.1596 5.56486 18.4 5.27202 18.7083 5.06599C19.0166 4.85997 19.3792 4.75 19.75 4.75C20.2473 4.75 20.7242 4.94754 21.0758 5.29917C21.4275 5.65081 21.625 6.12772 21.625 6.625Z" stroke="black" stroke-linejoin="round"/>
</svg>
