<svg width="40" height="40" viewBox="0 0 40 40" fill="none" xmlns="http://www.w3.org/2000/svg">
<path d="M20 0C16.0444 0 12.1776 1.17298 8.8886 3.37061C5.59962 5.56823 3.03617 8.69181 1.52242 12.3463C0.00866537 16.0009 -0.387401 20.0222 0.384303 23.9018C1.15601 27.7814 3.06082 31.3451 5.85787 34.1421C8.65492 36.9392 12.2186 38.844 16.0982 39.6157C19.9778 40.3874 23.9992 39.9913 27.6537 38.4776C31.3082 36.9638 34.4318 34.4004 36.6294 31.1114C38.827 27.8224 40 23.9556 40 20C39.9942 14.6975 37.8852 9.61376 34.1357 5.86429C30.3862 2.11483 25.3025 0.00582319 20 0ZM8.17401 34.084C9.36102 31.9938 11.0808 30.2556 13.1582 29.0464C15.2356 27.8371 17.5963 27.2001 20 27.2001C22.4037 27.2001 24.7645 27.8371 26.8418 29.0464C28.9192 30.2556 30.639 31.9938 31.826 34.084C28.5158 36.8714 24.3275 38.3999 20 38.3999C15.6726 38.3999 11.4842 36.8714 8.17401 34.084ZM33.034 32.974C31.0466 29.6513 27.8604 27.2175 24.132 26.174C25.8655 25.2521 27.2409 23.7769 28.0394 21.9832C28.8379 20.1895 29.0136 18.1802 28.5385 16.2751C28.0634 14.3701 26.9649 12.6786 25.4177 11.4698C23.8705 10.261 21.9634 9.6044 20 9.6044C18.0366 9.6044 16.1296 10.261 14.5823 11.4698C13.0351 12.6786 11.9366 14.3701 11.4615 16.2751C10.9864 18.1802 11.1621 20.1895 11.9606 21.9832C12.7591 23.7769 14.1345 25.2521 15.868 26.174C12.1396 27.2175 8.95342 29.6513 6.96601 32.974C4.3993 30.3981 2.6534 27.1194 1.94876 23.552C1.24412 19.9845 1.61234 16.2883 3.00692 12.9299C4.40151 9.57162 6.75992 6.70181 9.78435 4.6829C12.8088 2.66399 16.3636 1.58651 20 1.58651C23.6364 1.58651 27.1912 2.66399 30.2157 4.6829C33.2401 6.70181 35.5985 9.57162 36.9931 12.9299C38.3877 16.2883 38.7559 19.9845 38.0512 23.552C37.3466 27.1194 35.6007 30.3981 33.034 32.974ZM20 25.6C18.576 25.6 17.1839 25.1777 15.9999 24.3866C14.8159 23.5954 13.893 22.4709 13.3481 21.1553C12.8031 19.8397 12.6605 18.392 12.9384 16.9953C13.2162 15.5987 13.9019 14.3158 14.9088 13.3088C15.9158 12.3019 17.1987 11.6162 18.5954 11.3383C19.992 11.0605 21.4397 11.2031 22.7553 11.7481C24.071 12.293 25.1954 13.2159 25.9866 14.3999C26.7777 15.5839 27.2 16.976 27.2 18.4C27.2 20.3096 26.4414 22.1409 25.0912 23.4912C23.7409 24.8414 21.9096 25.6 20 25.6Z" fill="black"/>
</svg>
